<svg width="561" height="348" viewBox="0 0 561 348" fill="none" xmlns="http://www.w3.org/2000/svg">
<path d="M27.6977 31.6015C27.4776 31.7684 27.4345 32.082 27.6013 32.302L30.3197 35.8881C30.4866 36.1082 30.8002 36.1514 31.0202 35.9845C31.2403 35.8177 31.2835 35.5041 31.1167 35.284L28.7003 32.0964L31.8879 29.68C32.108 29.5132 32.1511 29.1996 31.9843 28.9795C31.8175 28.7594 31.5039 28.7163 31.2838 28.8831L27.6977 31.6015ZM236.8 238.692L236.331 238.866L236.8 238.692ZM376 240.839L376.468 241.015L376 240.839ZM515.2 154.741L514.79 155.028L515.2 154.741ZM654.4 245.701L654.459 246.198L654.4 245.701ZM724.353 213.028C724.158 212.833 723.841 212.833 723.646 213.028L720.464 216.21C720.269 216.405 720.269 216.722 720.464 216.917C720.659 217.112 720.976 217.112 721.171 216.917L724 214.089L726.828 216.917C727.023 217.112 727.34 217.112 727.535 216.917C727.731 216.722 727.731 216.405 727.535 216.21L724.353 213.028ZM27.6977 3.60155C27.4776 3.76836 27.4345 4.08199 27.6013 4.30205L30.3197 7.88814C30.4866 8.1082 30.8002 8.15137 31.0202 7.98455C31.2403 7.81773 31.2835 7.50411 31.1167 7.28404L28.7003 4.09641L31.8879 1.68001C32.108 1.5132 32.1511 1.19957 31.9843 0.979508C31.8175 0.759448 31.5039 0.716285 31.2838 0.883102L27.6977 3.60155ZM236.8 210.692L236.331 210.866L236.8 210.692ZM376 212.839L376.468 213.015L376 212.839ZM515.2 126.741L514.79 127.028L515.2 126.741ZM654.4 217.701L654.459 218.198L654.4 217.701ZM0.905273 99.1972L6.20333 101.492L5.54124 95.7561L0.905273 99.1972ZM256.087 244.805L255.679 245.095L256.087 244.805ZM391.099 210.852L391.597 210.9L391.099 210.852ZM503.272 91.6593L502.951 92.0424L503.272 91.6593ZM720.135 94.2603L717.863 99.5682L723.596 98.8813L720.135 94.2603ZM7.99976 127.138L13.2978 129.432L12.6357 123.697L7.99976 127.138ZM263.181 272.746L262.773 273.036L263.181 272.746ZM398.194 238.792L398.691 238.841L398.194 238.792ZM510.366 119.6L510.045 119.983L510.366 119.6ZM668.366 171.433L668.552 171.897L668.366 171.433ZM727.229 122.201L724.958 127.509L730.69 126.822L727.229 122.201ZM27.9316 32.4953C120.476 45.2316 189.965 113.933 236.331 238.866L237.269 238.519C190.835 113.405 121.124 44.3113 28.0679 31.5047L27.9316 32.4953ZM236.331 238.866C247.938 270.14 259.557 293.677 271.197 309.449C282.828 325.208 294.555 333.314 306.392 333.497C318.233 333.679 329.966 325.93 341.599 310.527C353.241 295.112 364.861 271.931 376.468 241.015L375.532 240.664C363.938 271.544 352.358 294.621 340.801 309.925C329.234 325.241 317.766 332.672 306.407 332.497C295.045 332.322 283.572 324.532 272.002 308.855C260.443 293.193 248.862 269.757 237.269 238.519L236.331 238.866ZM376.468 241.015C388.062 210.134 399.649 185.198 411.227 166.198C422.809 147.191 434.359 134.161 445.863 127.046C457.341 119.946 468.775 118.731 480.212 123.352C491.683 127.987 503.215 138.515 514.79 155.028L515.609 154.454C503.985 137.871 492.316 127.164 480.587 122.425C468.825 117.673 457.058 118.946 445.337 126.195C433.64 133.43 421.991 146.612 410.373 165.678C398.751 184.75 387.138 209.749 375.532 240.664L376.468 241.015ZM514.79 155.028C561.216 221.258 607.771 251.785 654.459 246.198L654.34 245.205C608.229 250.723 561.983 220.61 515.609 154.454L514.79 155.028ZM654.459 246.198C677.676 243.419 695.138 239.33 706.81 233.91C718.47 228.495 724.5 221.675 724.5 213.382H723.5C723.5 221.082 717.929 227.644 706.389 233.003C694.861 238.356 677.524 242.43 654.34 245.205L654.459 246.198ZM27.9316 4.49533C120.476 17.2316 189.965 85.9333 236.331 210.866L237.269 210.519C190.835 85.4046 121.124 16.3113 28.0679 3.50467L27.9316 4.49533ZM236.331 210.866C247.938 242.14 259.557 265.677 271.197 281.449C282.828 297.208 294.555 305.314 306.392 305.497C318.233 305.679 329.966 297.93 341.599 282.527C353.241 267.112 364.861 243.931 376.468 213.015L375.532 212.664C363.938 243.544 352.358 266.621 340.801 281.925C329.234 297.241 317.766 304.672 306.407 304.497C295.045 304.322 283.572 296.532 272.002 280.855C260.443 265.193 248.862 241.757 237.269 210.519L236.331 210.866ZM376.468 213.015C388.062 182.134 399.649 157.198 411.227 138.198C422.809 119.191 434.359 106.161 445.863 99.0459C457.341 91.946 468.775 90.731 480.212 95.3521C491.683 99.9866 503.215 110.515 514.79 127.028L515.609 126.454C503.985 109.871 492.316 99.1637 480.587 94.4249C468.825 89.6725 457.058 90.9456 445.337 98.1955C433.64 105.43 421.991 118.612 410.373 137.678C398.751 156.75 387.138 181.749 375.532 212.664L376.468 213.015ZM514.79 127.028C561.216 193.258 607.771 223.785 654.459 218.198L654.34 217.205C608.229 222.723 561.983 192.61 515.609 126.454L514.79 127.028ZM654.459 218.198C677.676 215.419 695.138 211.33 706.81 205.91C718.47 200.495 724.5 193.675 724.5 185.382H723.5C723.5 193.082 717.929 199.644 706.389 205.003C694.861 210.356 677.524 214.43 654.34 217.205L654.459 218.198ZM5.43072 99.1781C96.38 89.6138 179.796 138.164 255.679 245.095L256.494 244.516C180.502 137.432 96.7791 88.5663 5.32613 98.1836L5.43072 99.1781ZM255.679 245.095C274.984 272.299 292.299 292.026 307.625 304.248C322.938 316.46 336.363 321.255 347.845 318.368C359.33 315.479 368.657 304.958 375.907 287.068C383.163 269.165 388.387 243.767 391.597 210.9L390.601 210.803C387.396 243.632 382.183 268.92 374.98 286.693C367.771 304.481 358.618 314.627 347.601 317.398C336.58 320.169 323.482 315.614 308.249 303.467C293.03 291.33 275.778 271.689 256.494 244.516L255.679 245.095ZM391.597 210.9C394.803 178.071 399.541 150.985 405.807 129.636C412.075 108.279 419.86 92.7038 429.13 82.8536C438.38 73.0247 449.109 68.8919 461.353 70.3953C473.632 71.903 487.496 79.0877 502.951 92.0424L503.593 91.2761C488.073 78.2666 474.031 70.9444 461.475 69.4027C448.883 67.8566 437.847 72.1318 428.401 82.1683C418.976 92.1835 411.135 107.931 404.848 129.354C398.558 150.785 393.811 177.938 390.601 210.803L391.597 210.9ZM502.951 92.0424C564.936 144 617.805 161.438 661.457 143.957L661.085 143.028C617.973 160.293 565.51 143.176 503.593 91.2761L502.951 92.0424ZM661.457 143.957C681.085 136.096 695.888 128.419 705.839 120.92C715.773 113.434 720.976 106.045 721.17 98.7422L720.17 98.7156C719.989 105.547 715.104 112.686 705.238 120.121C695.389 127.543 680.68 135.181 661.085 143.028L661.457 143.957ZM12.5252 127.119C103.474 117.555 186.89 166.105 262.773 273.036L263.589 272.457C187.597 165.373 103.874 116.507 12.4206 126.124L12.5252 127.119ZM262.773 273.036C282.078 300.24 299.394 319.967 314.72 332.189C330.033 344.401 343.458 349.196 354.939 346.308C366.424 343.42 375.751 332.898 383.001 315.009C390.257 297.106 395.482 271.708 398.691 238.841L397.696 238.744C394.49 271.573 389.277 296.86 382.074 314.634C374.866 332.422 365.712 342.568 354.695 345.339C343.674 348.11 330.576 343.555 315.343 331.408C300.124 319.271 282.872 299.63 263.589 272.457L262.773 273.036ZM398.691 238.841C401.897 206.011 406.636 178.926 412.902 157.577C419.17 136.22 426.954 120.645 436.224 110.794C445.474 100.966 456.203 96.8327 468.447 98.3361C480.727 99.8439 494.59 107.029 510.045 119.983L510.688 119.217C495.167 106.207 481.125 98.8852 468.569 97.3436C455.978 95.7975 444.941 100.073 435.496 110.109C426.07 120.124 418.229 135.872 411.942 157.295C405.652 178.726 400.905 205.878 397.696 238.744L398.691 238.841ZM510.045 119.983C572.031 171.941 624.9 189.379 668.552 171.897L668.18 170.969C625.068 188.234 572.604 171.116 510.688 119.217L510.045 119.983ZM668.552 171.897C688.18 164.037 702.983 156.36 712.934 148.861C722.868 141.375 728.07 133.986 728.264 126.683L727.265 126.657C727.083 133.488 722.198 140.627 712.332 148.062C702.484 155.484 687.775 163.122 668.18 170.969L668.552 171.897Z" fill="#E98FDA"/>
</svg>
